<svg width="61" height="14" viewBox="0 0 61 14" fill="none" xmlns="http://www.w3.org/2000/svg">
<path d="M0.404 13V0.309999H2.726V11.038H8.702V13H0.404ZM15.2585 13.18C13.4465 13.18 12.0965 12.73 11.2085 11.83C10.3325 10.918 9.8945 9.574 9.8945 7.798V0.309999H12.2165V7.78C12.2165 8.908 12.4565 9.76 12.9365 10.336C13.4285 10.912 14.2025 11.2 15.2585 11.2C16.2665 11.2 17.0225 10.912 17.5265 10.336C18.0425 9.76 18.3005 8.908 18.3005 7.78V0.309999H20.5865V7.798C20.5865 9.574 20.1365 10.918 19.2365 11.83C18.3485 12.73 17.0225 13.18 15.2585 13.18ZM29.4107 13.18C27.9827 13.18 26.7827 12.916 25.8107 12.388C24.8387 11.86 24.1067 11.11 23.6147 10.138C23.1227 9.166 22.8767 8.014 22.8767 6.682C22.8767 5.338 23.1407 4.18 23.6687 3.208C24.1967 2.224 24.9527 1.468 25.9367 0.94C26.9327 0.399999 28.1267 0.129999 29.5187 0.129999C30.4427 0.129999 31.2527 0.256 31.9487 0.508C32.6447 0.748 33.2567 1.102 33.7847 1.57L33.0107 3.37C32.6267 3.07 32.2607 2.83 31.9127 2.65C31.5647 2.47 31.2047 2.344 30.8327 2.272C30.4607 2.188 30.0287 2.146 29.5367 2.146C28.1447 2.146 27.0887 2.542 26.3687 3.334C25.6607 4.114 25.3067 5.236 25.3067 6.7C25.3067 8.164 25.6427 9.28 26.3147 10.048C26.9987 10.816 28.0667 11.2 29.5187 11.2C30.0107 11.2 30.5027 11.152 30.9947 11.056C31.4987 10.96 31.9907 10.822 32.4707 10.642L32.0387 11.614V7.816H29.0687V6.124H33.9647V12.226C33.3767 12.526 32.6747 12.76 31.8587 12.928C31.0427 13.096 30.2267 13.18 29.4107 13.18ZM35.2109 13L40.9529 0.309999H42.8969L48.7109 13H46.3529L44.8049 9.436L45.7409 10.066H38.1269L39.0989 9.436L37.5509 13H35.2109ZM41.9069 2.794L39.3689 8.806L38.9009 8.248H44.9489L44.5709 8.806L41.9789 2.794H41.9069ZM50.1149 13V0.309999H55.6589C57.0509 0.309999 58.1249 0.639999 58.8809 1.3C59.6489 1.96 60.0329 2.878 60.0329 4.054C60.0329 4.834 59.8589 5.5 59.5109 6.052C59.1749 6.604 58.6889 7.03 58.0529 7.33C57.4169 7.618 56.6669 7.762 55.8029 7.762L56.0549 7.42H56.6669C57.1709 7.42 57.6209 7.552 58.0169 7.816C58.4129 8.08 58.7369 8.482 58.9889 9.022L60.8429 13H58.2869L56.4149 8.878C56.2469 8.458 55.9889 8.182 55.6409 8.05C55.3049 7.918 54.8969 7.852 54.4169 7.852H52.4369V13H50.1149ZM52.4369 6.142H55.2809C56.0969 6.142 56.7149 5.974 57.1349 5.638C57.5669 5.29 57.7829 4.786 57.7829 4.126C57.7829 3.466 57.5669 2.968 57.1349 2.632C56.7149 2.296 56.0969 2.128 55.2809 2.128H52.4369V6.142Z" fill="#1E3240"/>
</svg>
