<svg width="25" height="30" viewBox="0 0 25 30" fill="none" xmlns="http://www.w3.org/2000/svg">
<path d="M20.8154 15.8852C20.7818 12.254 23.8648 10.4873 24.0058 10.4051C22.2597 7.92309 19.5535 7.58398 18.6024 7.55686C16.3295 7.32361 14.1247 8.88299 12.9668 8.88299C11.7858 8.88299 10.0028 7.5794 8.08106 7.61778C5.60821 7.65492 3.29483 9.05087 2.02603 11.2185C-0.592542 15.6384 1.36043 22.1337 3.86906 25.7063C5.12399 27.456 6.59039 29.4097 8.50981 29.341C10.3876 29.2655 11.089 28.1737 13.3551 28.1737C15.6003 28.1737 16.2589 29.341 18.2165 29.2971C20.2317 29.2655 21.5005 27.5395 22.7116 25.7739C24.1618 23.7685 24.7442 21.7935 24.7674 21.6921C24.7199 21.6762 20.8535 20.2376 20.8154 15.8852Z" fill="#224722"/>
<path d="M17.1175 5.20667C18.1275 3.97522 18.8186 2.29987 18.6267 0.599731C17.165 0.662825 15.3368 1.58556 14.2842 2.78997C13.3527 3.85129 12.5207 5.59087 12.7357 7.2268C14.3778 7.34627 16.0637 6.41894 17.1175 5.20667Z" fill="#224722"/>
</svg>
