<svg width="107" height="30" viewBox="0 0 107 30" fill="none" xmlns="http://www.w3.org/2000/svg">
<mask id="mask0_1_9" style="mask-type:alpha" maskUnits="userSpaceOnUse" x="0" y="0" width="107" height="30">
<path d="M0.764038 0.5H106.764V29.26H0.764038V0.5Z" fill="white"/>
</mask>
<g mask="url(#mask0_1_9)">
<path d="M24.364 0.5H29.39V28.685H24.364V0.5ZM32.999 14.153C33.1458 13.2619 33.4455 12.4029 33.885 11.614C34.339 10.7785 34.9207 10.019 35.609 9.363C36.318 8.676 37.219 8.117 38.315 7.718C39.411 7.303 40.619 7.111 41.94 7.111C43.583 7.111 45.017 7.335 46.209 7.798C47.401 8.245 48.335 8.9 49.012 9.73C49.6769 10.5461 50.175 11.4849 50.478 12.493C50.784 13.515 50.929 14.649 50.929 15.91V23.719C50.929 25.731 51.042 27.392 51.283 28.701H46.257C46.144 28.014 46.097 27.248 46.097 26.386V25.38H46.064C44.856 27.983 42.633 29.276 39.394 29.276C37.124 29.276 35.319 28.669 33.998 27.471C32.678 26.258 32.017 24.773 32.017 22.984C32.017 22.25 32.129 21.563 32.371 20.94C32.613 20.317 32.903 19.806 33.273 19.375C33.6702 18.9241 34.1384 18.541 34.659 18.241C35.1708 17.9274 35.7096 17.6603 36.269 17.443C36.769 17.251 37.365 17.06 38.058 16.9C38.75 16.74 39.314 16.613 39.765 16.549C40.216 16.469 40.748 16.405 41.344 16.325C41.682 16.293 41.924 16.245 42.069 16.23C43.519 16.022 44.549 15.734 45.146 15.367C45.742 15 46.048 14.409 46.048 13.563C46.048 12.733 45.693 12.078 44.985 11.598C44.275 11.119 43.293 10.88 42.037 10.88C40.941 10.88 40.023 11.167 39.25 11.758C38.476 12.349 37.977 13.148 37.703 14.17H32.999V14.153ZM37.977 20.828C37.284 21.308 36.946 21.962 36.946 22.777C36.946 23.591 37.284 24.262 37.945 24.773C38.605 25.283 39.54 25.539 40.715 25.539C41.441 25.539 42.117 25.427 42.745 25.188C43.3836 24.9486 43.9653 24.5787 44.453 24.102C44.969 23.607 45.371 22.92 45.677 22.058C45.967 21.18 46.112 20.158 46.112 18.976V17.044C45.838 17.651 45.322 18.178 44.598 18.609C43.873 19.04 42.729 19.407 41.198 19.711C39.749 19.966 38.67 20.349 37.977 20.828ZM54.038 28.685V7.735H58.951V11.391C60.272 8.581 62.382 7.175 65.282 7.175C67.892 7.175 69.809 7.942 71.033 9.475C72.257 11.008 72.886 13.084 72.886 15.719V28.669H67.94V16.836C67.94 13.243 66.62 11.455 63.993 11.455C62.495 11.455 61.319 12.11 60.417 13.403C59.531 14.697 59.08 16.613 59.08 19.103V28.653H54.038V28.685ZM81.988 21.148C81.988 22.393 82.181 23.319 82.584 23.91C82.971 24.5 83.696 24.788 84.727 24.788H86.08V28.765H83.663C82.439 28.78 81.392 28.621 80.522 28.285C79.652 27.95 78.976 27.471 78.476 26.816C77.9706 26.1646 77.6084 25.414 77.413 24.613C77.187 23.798 77.091 22.856 77.091 21.786V11.55H74.61V7.734H77.09V1.889H82.004V7.734H86.176V11.55H82.004V21.148H81.988ZM88.464 14.153C88.6105 13.262 88.9099 12.403 89.349 11.614C89.8031 10.7785 90.3847 10.0191 91.073 9.363C91.782 8.676 92.684 8.117 93.78 7.718C94.875 7.303 96.083 7.111 97.404 7.111C99.047 7.111 100.481 7.335 101.673 7.798C102.865 8.245 103.8 8.9 104.476 9.73C105.141 10.546 105.639 11.4848 105.942 12.493C106.248 13.515 106.393 14.649 106.393 15.91V23.719C106.393 25.731 106.506 27.392 106.748 28.701H101.722C101.609 28.014 101.56 27.248 101.56 26.386V25.38H101.528C100.32 27.983 98.097 29.276 94.858 29.276C92.588 29.276 90.783 28.669 89.462 27.471C88.142 26.258 87.481 24.773 87.481 22.984C87.481 22.25 87.594 21.563 87.835 20.94C88.077 20.317 88.367 19.806 88.737 19.375C89.1342 18.9241 89.6024 18.541 90.123 18.241C90.6348 17.9274 91.1736 17.6604 91.733 17.443C92.233 17.251 92.829 17.06 93.522 16.9C94.215 16.74 94.778 16.613 95.229 16.549C95.68 16.469 96.212 16.405 96.809 16.325C97.146 16.293 97.389 16.245 97.533 16.23C98.983 16.022 100.013 15.734 100.61 15.367C101.206 15 101.512 14.409 101.512 13.563C101.512 12.733 101.158 12.078 100.449 11.598C99.74 11.119 98.757 10.88 97.501 10.88C96.405 10.88 95.487 11.167 94.714 11.758C93.941 12.349 93.441 13.148 93.167 14.17H88.464V14.153ZM93.441 20.828C92.749 21.308 92.411 21.962 92.411 22.777C92.411 23.591 92.749 24.262 93.409 24.773C94.069 25.283 95.004 25.539 96.179 25.539C96.905 25.539 97.581 25.427 98.209 25.188C98.8476 24.9486 99.4293 24.5787 99.917 24.102C100.433 23.607 100.836 22.92 101.142 22.058C101.432 21.18 101.577 20.158 101.577 18.976V17.044C101.303 17.651 100.787 18.178 100.062 18.609C99.337 19.04 98.194 19.407 96.663 19.711C95.197 19.966 94.118 20.349 93.441 20.828ZM18.904 3.023C16.969 1.346 14.408 0.5 11.218 0.5H0.764038V28.685H1.76304C4.09904 28.685 5.98304 26.801 5.98304 24.501V4.796H10.8C12.62 4.796 14.054 5.195 15.07 5.977C16.1 6.776 16.6 7.941 16.6 9.522C16.6 11.087 16.068 12.301 15.005 13.132C13.942 13.962 12.508 14.392 10.687 14.392C8.89904 14.392 7.44904 15.83 7.44904 17.602V18.688H11.122C13.104 18.688 14.908 18.289 16.552 17.475C18.194 16.676 19.467 15.558 20.418 14.153C21.352 12.748 21.819 11.167 21.819 9.443C21.803 6.84 20.836 4.7 18.903 3.023H18.904Z" fill="#224722"/>
</g>
</svg>
