<svg width="28" height="30" viewBox="0 0 28 30" fill="none" xmlns="http://www.w3.org/2000/svg">
<path d="M1.04223 1.08888C0.703256 1.43534 0.50708 1.97472 0.50708 2.67326V27.5895C0.50708 28.288 0.703256 28.8275 1.04223 29.1739L1.12589 29.2499L15.4264 15.2933V14.9638L1.12589 1.0072L1.04223 1.08888Z" fill="#224722"/>
<path d="M20.1881 19.9478L15.4265 15.2933V14.9638L20.1938 10.3093L20.3005 10.3698L25.9464 13.5062C27.5576 14.3962 27.5576 15.8609 25.9464 16.7566L20.3005 19.8873L20.1881 19.9478Z" fill="#224722"/>
<path d="M20.3003 19.8874L15.4262 15.1287L1.04196 29.174C1.57707 29.7232 2.4498 29.7894 3.44226 29.2401L20.3003 19.8874Z" fill="#224722"/>
<path d="M20.3003 10.3697L3.44226 1.01696C2.4498 0.473347 1.57707 0.539536 1.04196 1.08878L15.4262 15.1285L20.3003 10.3697Z" fill="#224722"/>
</svg>
