<svg width="32" height="32" viewBox="0 0 32 32" fill="none" xmlns="http://www.w3.org/2000/svg">
<g clip-path="url(#clip0_1_93)">
<path d="M16.88 3.44002C16.6337 3.22721 16.319 3.11011 15.9935 3.11011C15.668 3.11011 15.3533 3.22721 15.107 3.44002C8.60001 9.17302 5.33301 14.16 5.33301 18.4C5.33301 25.04 10.4 29.333 16 29.333C21.6 29.333 26.667 25.04 26.667 18.4C26.667 14.16 23.4 9.17302 16.88 3.44002ZM10.44 18.666C10.933 18.666 11.333 19.013 11.427 19.493C11.973 22.453 14.467 23.467 16.28 23.32C16.4156 23.3133 16.5512 23.3341 16.6785 23.3813C16.8058 23.4284 16.9222 23.501 17.0207 23.5945C17.1192 23.688 17.1976 23.8005 17.2513 23.9252C17.305 24.0499 17.3328 24.1842 17.333 24.32C17.333 24.853 16.907 25.293 16.373 25.32C13.533 25.493 10.213 23.866 9.45301 19.826C9.34701 19.226 9.82701 18.666 10.44 18.666Z" fill="#224722"/>
</g>
<defs>
<clipPath id="clip0_1_93">
<rect width="32" height="32" fill="white"/>
</clipPath>
</defs>
</svg>
